HIERARCHY
ROOT Hips
{
	OFFSET 0.000000 0.000000 0.990480
	CHANNELS 6 Xposition Yposition Zposition Xrotation Yrotation Zrotation
	JOINT Spine
	{
		OFFSET 0.000000 0.000000 0.099820
		CHANNELS 6 Xposition Yposition Zposition Xrotation Yrotation Zrotation
		JOINT Chest
		{
			OFFSET 0.000000 0.000000 0.152175
			CHANNELS 6 Xposition Yposition Zposition Xrotation Yrotation Zrotation
			JOINT Neck
			{
				OFFSET 0.000000 0.000000 0.337083
				CHANNELS 6 Xposition Yposition Zposition Xrotation Yrotation Zrotation
				JOINT Head
				{
					OFFSET 0.000000 0.000000 0.150550
					CHANNELS 3 Xrotation Yrotation Zrotation
					End Site
					{
						OFFSET 0.000000 0.000000 0.164719
					}
				}
			}
			JOINT RightShoulder
			{
				OFFSET -0.043277 0.000000 0.228616
				CHANNELS 6 Xposition Yposition Zposition Xrotation Yrotation Zrotation
				JOINT RightArm
				{
					OFFSET -0.105461 0.000000 0.000004
					CHANNELS 6 Xposition Yposition Zposition Xrotation Yrotation Zrotation
					JOINT RightForeArm
					{
						OFFSET -0.247377 0.000000 0.000009
						CHANNELS 6 Xposition Yposition Zposition Xrotation Yrotation Zrotation
						JOINT RightHand
						{
							OFFSET -0.262149 0.000000 0.000009
							CHANNELS 6 Xposition Yposition Zposition Xrotation Yrotation Zrotation
							JOINT RightHandIndex1
							{
								OFFSET -0.082535 -0.029415 0.000003
								CHANNELS 3 Xrotation Yrotation Zrotation
								JOINT RightHandIndex2
								{
									OFFSET -0.033301 -0.004409 0.000001
									CHANNELS 3 Xrotation Yrotation Zrotation
									JOINT RightHandIndex3
									{
										OFFSET -0.025492 -0.003784 0.000001
										CHANNELS 3 Xrotation Yrotation Zrotation
										End Site
										{
											OFFSET -0.043285 -0.003344 0.000001
										}
									}
								}
							}
							JOINT RightHandMiddle1
							{
								OFFSET -0.088557 -0.008155 0.000003
								CHANNELS 3 Xrotation Yrotation Zrotation
								JOINT RightHandMiddle2
								{
									OFFSET -0.034042 -0.001186 0.000001
									CHANNELS 3 Xrotation Yrotation Zrotation
									JOINT RightHandMiddle3
									{
										OFFSET -0.026773 -0.000599 0.000000
										CHANNELS 3 Xrotation Yrotation Zrotation
										End Site
										{
											OFFSET -0.052615 -0.002366 0.000002
										}
									}
								}
							}
							JOINT RightHandRing1
							{
								OFFSET -0.085632 0.009333 0.000003
								CHANNELS 3 Xrotation Yrotation Zrotation
								JOINT RightHandRing2
								{
									OFFSET -0.029113 0.002339 0.000001
									CHANNELS 3 Xrotation Yrotation Zrotation
									JOINT RightHandRing3
									{
										OFFSET -0.027037 0.001866 0.000001
										CHANNELS 3 Xrotation Yrotation Zrotation
										End Site
										{
											OFFSET -0.048310 0.000687 0.000001
										}
									}
								}
							}
							JOINT RightHandPinky1
							{
								OFFSET -0.076599 0.027405 0.000003
								CHANNELS 3 Xrotation Yrotation Zrotation
								JOINT RightHandPinky2
								{
									OFFSET -0.032445 0.007645 0.000002
									CHANNELS 3 Xrotation Yrotation Zrotation
									JOINT RightHandPinky3
									{
										OFFSET -0.019101 0.004136 0.000001
										CHANNELS 3 Xrotation Yrotation Zrotation
										End Site
										{
											OFFSET -0.036478 0.003212 0.000001
										}
									}
								}
							}
							JOINT RightHandThumb1
							{
								OFFSET -0.018894 -0.029252 0.000001
								CHANNELS 3 Xrotation Yrotation Zrotation
								JOINT RightHandThumb2
								{
									OFFSET -0.024834 -0.023384 0.000001
									CHANNELS 3 Xrotation Yrotation Zrotation
									JOINT RightHandThumb3
									{
										OFFSET -0.024730 -0.013883 0.000001
										CHANNELS 3 Xrotation Yrotation Zrotation
										End Site
										{
											OFFSET -0.036269 -0.015625 0.000001
										}
									}
								}
							}
						}
					}
				}
			}
			JOINT LeftShoulder
			{
				OFFSET 0.043336 0.000000 0.228616
				CHANNELS 6 Xposition Yposition Zposition Xrotation Yrotation Zrotation
				JOINT LeftArm
				{
					OFFSET 0.105402 0.000000 0.000018
					CHANNELS 6 Xposition Yposition Zposition Xrotation Yrotation Zrotation
					JOINT LeftForeArm
					{
						OFFSET 0.248086 -0.001017 0.000042
						CHANNELS 6 Xposition Yposition Zposition Xrotation Yrotation Zrotation
						JOINT LeftHand
						{
							OFFSET 0.262001 0.000000 0.000044
							CHANNELS 6 Xposition Yposition Zposition Xrotation Yrotation Zrotation
							JOINT LeftHandIndex1
							{
								OFFSET 0.082507 -0.030061 -0.000028
								CHANNELS 3 Xrotation Yrotation Zrotation
								JOINT LeftHandIndex2
								{
									OFFSET 0.033280 -0.004602 0.000048
									CHANNELS 3 Xrotation Yrotation Zrotation
									JOINT LeftHandIndex3
									{
										OFFSET 0.025464 -0.003944 0.000004
										CHANNELS 3 Xrotation Yrotation Zrotation
										End Site
										{
											OFFSET 0.043236 -0.003593 0.000007
										}
									}
								}
							}
							JOINT LeftHandMiddle1
							{
								OFFSET 0.088481 -0.008664 0.000015
								CHANNELS 3 Xrotation Yrotation Zrotation
								JOINT LeftHandMiddle2
								{
									OFFSET 0.034019 -0.001373 0.000006
									CHANNELS 3 Xrotation Yrotation Zrotation
									JOINT LeftHandMiddle3
									{
										OFFSET 0.026769 -0.000745 0.000005
										CHANNELS 3 Xrotation Yrotation Zrotation
										End Site
										{
											OFFSET 0.052542 -0.002648 0.000009
										}
									}
								}
							}
							JOINT LeftHandRing1
							{
								OFFSET 0.085626 0.008930 0.000014
								CHANNELS 3 Xrotation Yrotation Zrotation
								JOINT LeftHandRing2
								{
									OFFSET 0.029129 0.002221 0.000005
									CHANNELS 3 Xrotation Yrotation Zrotation
									JOINT LeftHandRing3
									{
										OFFSET 0.027049 0.001739 0.000005
										CHANNELS 3 Xrotation Yrotation Zrotation
										End Site
										{
											OFFSET 0.048215 0.000435 0.000008
										}
									}
								}
							}
							JOINT LeftHandPinky1
							{
								OFFSET 0.076700 0.027168 0.000013
								CHANNELS 3 Xrotation Yrotation Zrotation
								JOINT LeftHandPinky2
								{
									OFFSET 0.032485 0.007539 0.000005
									CHANNELS 3 Xrotation Yrotation Zrotation
									JOINT LeftHandPinky3
									{
										OFFSET 0.019121 0.004064 0.000003
										CHANNELS 3 Xrotation Yrotation Zrotation
										End Site
										{
											OFFSET 0.036502 0.003032 0.000006
										}
									}
								}
							}
							JOINT LeftHandThumb1
							{
								OFFSET 0.018711 -0.029540 0.000003
								CHANNELS 3 Xrotation Yrotation Zrotation
								JOINT LeftHandThumb2
								{
									OFFSET 0.024721 -0.023664 0.000004
									CHANNELS 3 Xrotation Yrotation Zrotation
									JOINT LeftHandThumb3
									{
										OFFSET 0.024649 -0.014096 0.000004
										CHANNELS 3 Xrotation Yrotation Zrotation
										End Site
										{
											OFFSET 0.036243 -0.015928 0.000006
										}
									}
								}
							}
						}
					}
				}
			}
		}
	}
	JOINT RightUpLeg
	{
		OFFSET -0.115000 0.000000 -0.015985
		CHANNELS 6 Xposition Yposition Zposition Xrotation Yrotation Zrotation
		JOINT RightLeg
		{
			OFFSET 0.000000 0.000000 -0.417140
			CHANNELS 6 Xposition Yposition Zposition Xrotation Yrotation Zrotation
			JOINT RightFoot
			{
				OFFSET 0.000000 0.000000 -0.438030
				CHANNELS 3 Xrotation Yrotation Zrotation
				JOINT RightToeBase
				{
					OFFSET 0.000000 -0.104620 -0.083528
					CHANNELS 6 Xposition Yposition Zposition Xrotation Yrotation Zrotation
					End Site
					{
						OFFSET 0.000000 -0.133871 -0.000951
					}
				}
			}
		}
	}
	JOINT LeftUpLeg
	{
		OFFSET 0.115000 0.000000 -0.015985
		CHANNELS 6 Xposition Yposition Zposition Xrotation Yrotation Zrotation
		JOINT LeftLeg
		{
			OFFSET 0.000000 0.000000 -0.417140
			CHANNELS 6 Xposition Yposition Zposition Xrotation Yrotation Zrotation
			JOINT LeftFoot
			{
				OFFSET 0.000000 0.000000 -0.438030
				CHANNELS 3 Xrotation Yrotation Zrotation
				JOINT LeftToeBase
				{
					OFFSET 0.000000 -0.104620 -0.083528
					CHANNELS 6 Xposition Yposition Zposition Xrotation Yrotation Zrotation
					End Site
					{
						OFFSET 0.000000 -0.133871 -0.000951
					}
				}
			}
		}
	}
}
MOTION
Frames: 4
Frame Time:	0.016667
0.0859 0.597 0.9367 -11.0778 0.1846 -10.7902 0 -0.0004 0.0975 8.6786 3.2386 -0.3754 0.0001 -0.0015 0.1504 11.9294 4.4854 -0.8516 0 0.0017 0.2899 0.5487 0.378 7.5063 -28.9868 -1.4876 6.6576 -0.0433 0.0017 0.2353 10.0106 -23.1545 -2.3973 -0.1055 0 0 16.4179 -45.1137 18.3807 -0.2671 0 0 -2.6014 -4.6118 43.4855 -0.283 0 0 30.5101 3.2368 9.589 23.4906 -61.1557 28.7646 29.4777 -78.1588 26.6602 9.5091 -64.6974 7.5832 11.0641 -63.1532 15.3933 4.0514 -77.911 3.6411 3.2497 -75.593 2.8608 -9.1208 -63.7607 -4.8369 -9.6946 -75.1289 -8.5031 -14.2745 -79.0382 -12.97 -0.924 -26.2051 -1.9038 -8.4813 -40.5169 -3.2115 -6.8847 -35.8094 -2.2241 12.2462 -22.4051 -1.1072 -0.004 0.002 -25.3114 -0.0042 0.003 -52.9738 0.0433 0.0017 0.2353 8.2872 21.3959 5.0948 0.1054 0 0 9.3844 40.9123 -5.7013 0.2674 -0.0011 0 -5.1448 5.2128 -53.051 0.2824 0 0 23.2157 -5.0994 -12.5392 25.3889 62.0008 -30.6036 32.3883 78.5331 -29.4103 9.9359 64.7052 -7.9241 6.8467 56.2775 -9.2322 3.8205 74.9537 -3.3438 3.2295 72.9466 -2.7759 -9.0587 66.9165 3.3648 -10.3807 75.9946 8.9914 -15.7817 80.086 14.2787 -10.0729 61.0382 -6.7445 -29.1927 68.209 20.5503 -34.0012 70.642 25.0535 12.2495 22.1841 0.4783 -0.0039 -0.0008 24.3107 -0.0071 -0.0041 51.7677 -0.115 0 -0.016 29.878 7.3307 -2.1368 0 0 -0.4175 15.3952 -0.1236 0.0109 -14.0762 -19.5009 2.8695 0 -0.1046 -0.0835 -9.3384 0.0127 -0.0156 0.115 0 -0.016 -1.4936 1.3906 7.9984 0 0 -0.4171 28.8644 0.6271 -0.1585 -14.1148 6.0327 5.8129 0 -0.1046 -0.0835 -2.5978 0.0001 0 
0.0834 0.6105 0.9339 -10.9673 0.0193 -11.3908 0 -0.0004 0.0975 8.6874 3.3954 -0.3528 0.0001 -0.0015 0.1504 11.9317 4.6991 -0.7404 0 0.0017 0.2899 0.5162 0.3842 7.7022 -29.008 -1.628 6.8067 -0.0433 0.0017 0.2353 9.9891 -23.096 -2.1344 -0.1055 0 0 16.7147 -45.0989 19.1256 -0.2671 0 0 -2.5612 -4.5469 43.9743 -0.283 0 0 30.716 2.7725 9.3285 23.4906 -61.1556 28.7645 29.4776 -78.1588 26.66 9.5092 -64.6974 7.5832 11.0639 -63.153 15.3928 4.0513 -77.9106 3.641 3.2494 -75.5924 2.8604 -9.121 -63.7605 -4.8378 -9.6943 -75.1285 -8.5029 -14.2739 -79.0379 -12.9694 -0.922 -26.2019 -1.9184 -8.479 -40.5107 -3.21 -6.8807 -35.7967 -2.2218 12.2463 -22.4051 -1.1072 -0.004 0.002 -25.3114 -0.0042 0.003 -52.9738 0.0433 0.0017 0.2353 8.2249 21.3276 5.0615 0.1054 0 0 9.2493 40.8615 -5.7919 0.2674 -0.0011 0 -5.3421 5.2165 -53.0668 0.2824 0 0 22.9509 -5.1936 -12.1163 25.3889 62.0009 -30.6036 32.3883 78.5331 -29.4103 9.9359 64.7052 -7.9241 6.8468 56.2775 -9.2324 3.8204 74.9534 -3.3437 3.2296 72.9471 -2.776 -9.0586 66.9165 3.3648 -10.3807 75.9946 8.9915 -15.7817 80.0859 14.2786 -10.0728 61.0382 -6.7446 -29.1927 68.209 20.5503 -34.0012 70.642 25.0535 12.2495 22.1841 0.4783 -0.0039 -0.0008 24.3108 -0.0071 -0.0041 51.7677 -0.115 0 -0.016 29.3208 7.2901 -2.0947 0 0 -0.4175 14.9997 -0.1285 0.0123 -16.5263 -17.393 2.3961 0 -0.1046 -0.0835 -8.2902 0.0095 -0.0228 0.115 0 -0.016 -3.1424 1.1519 8.2015 0 0 -0.4171 30.2232 0.6557 -0.1732 -13.911 6.1323 6.1022 0 -0.1046 -0.0835 -2.6342 0.0001 0 
0.0812 0.6217 0.9316 -10.8264 -0.106 -11.8472 0 -0.0004 0.0975 8.6439 3.494 -0.3539 0.0001 -0.0015 0.1504 11.8653 4.8355 -0.7231 0 0.0017 0.2899 0.4916 0.3947 7.8913 -28.9053 -1.7242 6.9734 -0.0433 0.0017 0.2353 9.9768 -23.0583 -1.9595 -0.1055 0 0 16.9652 -45.0584 19.6604 -0.2671 0 0 -2.4799 -4.4737 44.2943 -0.283 0 0 30.9741 2.4579 9.3629 23.4906 -61.1556 28.7645 29.4777 -78.1588 26.66 9.5091 -64.6974 7.5831 11.0636 -63.1527 15.3924 4.0511 -77.9102 3.6409 3.2492 -75.5917 2.8603 -9.1214 -63.7602 -4.8389 -9.6938 -75.1281 -8.5025 -14.2731 -79.0375 -12.9687 -0.9198 -26.1984 -1.9347 -8.4765 -40.5038 -3.2084 -6.8761 -35.7824 -2.2191 12.2463 -22.4051 -1.1072 -0.004 0.002 -25.3114 -0.0042 0.003 -52.9738 0.0433 0.0017 0.2353 8.2099 21.3124 5.0833 0.1054 0 0 9.1516 40.8716 -5.7625 0.2674 -0.0011 0 -5.4538 5.2458 -52.9052 0.2824 0 0 22.7672 -5.4636 -12.017 25.3888 62.0008 -30.6036 32.3885 78.5331 -29.4105 9.9358 64.7052 -7.9241 6.8468 56.2773 -9.2326 3.82 74.952 -3.3433 3.2299 72.9479 -2.7762 -9.0587 66.9165 3.3648 -10.3807 75.9946 8.9914 -15.7816 80.086 14.2786 -10.0729 61.0382 -6.7445 -29.1926 68.209 20.5503 -34.0013 70.642 25.0536 12.2495 22.1841 0.4783 -0.0039 -0.0008 24.3107 -0.0071 -0.0041 51.7677 -0.115 0 -0.016 28.8438 7.1514 -2.2648 0 0 -0.4175 14.6756 -0.1342 0.0136 -19.0378 -15.5262 1.7801 0 -0.1046 -0.0835 -6.9502 0.0036 -0.0288 0.115 0 -0.016 -4.5458 0.9025 8.3288 0 0 -0.4171 31.3269 0.6838 -0.188 -13.7101 6.1511 6.3307 0 -0.1046 -0.0835 -2.6675 0.0001 -0.0001 
0.0787 0.6336 0.9295 -10.5899 -0.1923 -12.2551 0 -0.0004 0.0975 8.6034 3.5784 -0.3541 0.0001 -0.0015 0.1504 11.7978 4.9517 -0.7004 0 0.0017 0.2898 0.4509 0.4022 8.0521 -28.8412 -1.8211 7.1137 -0.0433 0.0017 0.2353 9.9652 -23.0189 -1.7358 -0.1055 0 0 17.2555 -45.0605 20.4007 -0.267 0 0 -2.4564 -4.4071 44.4886 -0.283 0 0 31.1919 2.1869 9.2789 23.4906 -61.1556 28.7646 29.4775 -78.1588 26.66 9.5091 -64.6973 7.5831 11.0635 -63.1527 15.3922 4.051 -77.9099 3.6408 3.2492 -75.5913 2.8602 -9.1216 -63.76 -4.8394 -9.6937 -75.1278 -8.5023 -14.2728 -79.0373 -12.9684 -0.9186 -26.1965 -1.9433 -8.4752 -40.5002 -3.2075 -6.8737 -35.7748 -2.2177 12.2462 -22.4051 -1.1072 -0.004 0.002 -25.3114 -0.0042 0.003 -52.9738 0.0433 0.0017 0.2353 8.168 21.2673 5.0964 0.1054 0 0 9.042 40.8099 -5.8153 0.2674 -0.0011 0 -5.6007 5.2402 -52.7022 0.2824 0 0 22.5872 -5.6293 -12.0181 25.3889 62.0008 -30.6036 32.3886 78.5331 -29.4105 9.9358 64.7051 -7.9241 6.8468 56.2772 -9.2327 3.8196 74.9512 -3.343 3.2299 72.948 -2.7763 -9.0586 66.9165 3.3647 -10.3807 75.9946 8.9915 -15.7816 80.086 14.2786 -10.0728 61.0382 -6.7445 -29.1927 68.209 20.5503 -34.0013 70.642 25.0537 12.2495 22.1841 0.4783 -0.0039 -0.0008 24.3107 -0.0071 -0.0041 51.7677 -0.115 0 -0.016 28.0486 6.8988 -2.3795 0 0 -0.4175 14.5907 -0.1568 0.018 -20.8994 -13.7287 1.3748 0 -0.1046 -0.0835 -6.0317 0.0005 -0.025 0.115 0 -0.016 -6.0642 0.5632 8.4188 0 0 -0.4171 32.3354 0.7167 -0.2043 -13.3231 6.092 6.515 0 -0.1046 -0.0835 -2.728 0.0001 -0.0002 
